<?xml version="1.0" encoding="utf-8"?>
<!-- Generator: Adobe Illustrator 25.0.0, SVG Export Plug-In . SVG Version: 6.00 Build 0)  -->
<svg version="1.1" id="Capa_1" xmlns="http://www.w3.org/2000/svg" xmlns:xlink="http://www.w3.org/1999/xlink" x="0px" y="0px"
	 viewBox="0 0 456 68.6" style="enable-background:new 0 0 456 68.6;" xml:space="preserve">
<style type="text/css">
	.st0{fill:#BFD089;}
	.st1{fill:#FFFFFF;}
</style>
<g>
	<path class="st0" d="M60.7,27.4c-1.9,0-3.9-0.5-5.9-1.3c-2-0.8-3.7-1.8-5.2-2.8c-1.5-1.1-3.2-2.2-5.3-3.5s-4-2.3-5.8-2.9
		c-5.3-1.9-9.8-2-13.5-0.4c-3.7,1.6-6.5,4.4-8.3,8.4c-1.8,4-2.5,8.5-2.2,13.6c0.1,2.2,0.5,4.2,1.2,6c0.6,1.9,1.6,3.6,2.7,5.1
		c1.2,1.5,2.6,2.7,4.1,3.6C18,54.7,14,55,10.7,54c-3.3-1-5.9-2.8-7.7-5.5c-1.8-2.7-2.8-5.8-2.9-9.5c-0.1-3.6,0.4-6.8,1.5-9.8
		c1.1-3,2.6-5.6,4.6-7.7c2-2.1,4.3-4,6.9-5.5c2.7-1.5,5.5-2.6,8.6-3.3c3-0.7,6.2-1.1,9.4-1.1c3.4,0,6.8,0.3,10.3,0.8
		c3.4,0.6,6.2,1.1,8.4,1.8c2.2,0.6,4.4,1.1,6.7,1.5c2.3,0.4,4.3,0.4,6,0.1c1.9-0.3,3.5-1,4.8-2c1.3-1,1.9-2.1,1.7-3.5
		c-0.2-1.2-0.9-2.2-2.1-2.9c-1.2-0.7-2.5-1.1-4-1.2c-1.5,0-3,0.1-4.4,0.5c-1.4,0.4-2.6,1.2-3.5,2.3c-0.9,1.2-1.2,2.6-0.9,4.3
		c-2.4-0.1-4.1-1.3-5-3.5c-1-2.3-0.7-4.4,0.9-6.4c1.7-2.3,4.7-3.5,8.8-3.6c3.3,0,6.3,1,9,3.1c2.7,2.1,4.6,4.6,5.6,7.4
		c0.4,1.4,0.6,2.9,0.6,4.5c0,1.5-0.3,3-0.9,4.5c-0.6,1.5-1.5,2.8-2.5,4c-1,1.2-2.4,2.1-4.1,2.8C64.7,27,62.8,27.4,60.7,27.4z
		 M36.4,34.7L36.4,34.7c-0.3,18.3,0.3,29.2,1.7,33H21.9c1.7-4.2,2.4-15.1,1.9-32.7c-0.2-6.6-0.9-11-2-13c2.5-0.2,5.4-0.8,8.7-1.6
		c3.2-0.8,5.7-1.6,7.5-2.4c-0.9,2.3-1.4,7-1.6,14.3h9.9v2.4H36.4z"/>
	<path class="st0" d="M62.9,21.5c-1.1,3.3-1.6,11-1.7,23.1c0,12.1,0.5,19.8,1.7,23.1H46.6c1.4-3.4,2.1-10.3,2.1-21
		c0-10.6-0.7-17.4-2.1-20.3c1.7-0.2,3.6-0.6,5.7-1.1c2.1-0.5,4.1-1.1,6-1.8C60.2,22.8,61.7,22.1,62.9,21.5z"/>
	<path class="st0" d="M65,43.7c1.2-4.7,3.8-8.2,7.8-10.3c4-2.2,8.3-2.4,12.9-0.7c4.5,1.7,8,4.8,10.3,9.3c2.4,4.5,2.9,9.1,1.7,13.9
		c-1.2,4.7-3.8,8.2-7.8,10.3c-4,2.2-8.3,2.4-12.9,0.7c-4.5-1.7-8-4.8-10.3-9.3C64.3,53.1,63.8,48.5,65,43.7z M84.9,47.9
		c-2-4-4.1-7.1-6.2-9.4c-2.1-2.3-3.7-3.2-4.7-2.7c-1,0.5-1.2,2.3-0.4,5.4c0.7,3,2.1,6.6,4.2,10.5c2.1,3.9,4.2,7.1,6.3,9.4
		c2.1,2.3,3.7,3.2,4.7,2.7c1-0.5,1.1-2.3,0.4-5.4C88.4,55.3,87,51.8,84.9,47.9z"/>
	<path class="st0" d="M114.5,42c-0.2,1.2-0.3,2.9-0.4,5.2c-0.1,2.3-0.1,4.7-0.1,7.2c0,2.5,0.2,5,0.6,7.5c0.3,2.5,0.8,4.4,1.3,5.7
		H99.5c1.1-2.4,1.8-6,2.1-10.7c0.3-4.8,0.2-9.2-0.3-13.3c-0.4-4.1-1-6.9-1.8-8.2c5-0.5,9.9-1.5,14.5-3.2V36c0.3-0.5,0.7-1,1.1-1.4
		c2-1.9,4.3-2.9,7.1-2.8c2.7,0.1,4.9,1.3,6.7,3.5c1.8,2.3,2.7,4.8,2.8,7.7c0,2.1-0.5,3.9-1.4,5.4c-0.9,1.5-2.1,2.6-3.5,3.2
		c-1.4,0.6-3,0.9-4.6,0.9c-1.7-0.1-3.2-0.5-4.6-1.3c1.2-0.9,2.1-2.4,2.6-4.6c0.5-2.1,0.5-4.1,0-6c-0.5-1.9-1.2-2.9-2.3-3.1
		C116.2,37.3,115.1,38.7,114.5,42z"/>
	<path class="st0" d="M151.9,56.4c-0.5,1.7-1,3.1-1.5,4.4c-0.5,1.2-1.2,2.5-2,3.8c-0.8,1.3-1.9,2.3-3.2,3c-1.3,0.7-2.7,1-4.4,1
		c-2.7,0-4.8-0.9-6.4-2.8c-1.6-1.9-2.3-4.2-2.1-6.8c0.2-2.6,1.2-4.9,3.1-6.8c1.3-1.4,3-2.6,5-3.6c2-1,3.8-1.8,5.4-2.3
		c1.6-0.5,3-1.2,4.4-2.2c1.4-1,2.2-2.2,2.6-3.8c0.4-1.6,0.3-3.1-0.2-4.4c-0.5-1.4-1.6-2.1-3.2-2.3c-0.8,0-1.6,0.2-2.4,0.6
		c-0.8,0.5-1.4,1.1-1.8,1.8c-0.4,0.7-0.5,1.7-0.3,2.7c0.2,1.1,0.9,2.1,1.9,3.2c-1,1.2-2.4,2.1-4.1,2.5c-1.7,0.4-3.4,0.2-4.9-0.5
		c-1.6-0.8-2.6-2.1-3-3.9c-0.3-2.6,1.2-4.8,4.7-6.7c3.8-2,8-2.7,12.6-2.1c5.5,0.7,9.2,3.1,11.2,7.4c0.8,1.8,1.2,3.9,1.2,6.3
		l0.1,13.2c0,2.5,0.2,4.5,0.7,5.8c0.5,1.3,1.2,1.8,2.3,1.7c1.4-0.5,1.9-2.1,1.6-4.9c-0.3-2.8-1.3-5.1-2.8-6.9c2.7-1.4,4.8-1.1,6.3,1
		c1.3,1.9,1.5,4.2,0.6,6.9c-1.1,3.2-3.3,5.3-6.8,6.2c-1.1,0.3-2.3,0.5-3.6,0.5C155.7,68.4,152,64.4,151.9,56.4z M151.9,50.4
		c0-2,0.1-3.5,0.1-4.3c-0.1,0-0.3,0.3-0.8,0.7c-0.4,0.4-0.7,0.7-0.8,0.8c-0.1,0.1-0.4,0.4-0.7,0.8c-0.4,0.4-0.6,0.7-0.8,0.9
		c-0.1,0.2-0.4,0.5-0.7,0.9c-0.3,0.4-0.6,0.8-0.7,1s-0.3,0.7-0.6,1.1c-0.2,0.5-0.4,0.9-0.6,1.3c-0.1,0.4-0.3,0.8-0.4,1.3
		c-0.1,0.5-0.2,1-0.3,1.4c-0.2,1.2-0.2,2.1,0.1,2.7c0.2,0.7,0.6,1,1.2,1c1.1-0.1,2-1,2.8-2.7C150.5,55.8,151.2,53.4,151.9,50.4z"/>
	<path class="st1" d="M229.1,27.4c-1.9,0-3.9-0.5-5.9-1.3c-2-0.8-3.7-1.8-5.2-2.8c-1.5-1.1-3.2-2.2-5.3-3.5s-4-2.3-5.8-2.9
		c-5.3-1.9-9.8-2-13.5-0.4c-3.7,1.6-6.5,4.4-8.3,8.4c-1.8,4-2.5,8.5-2.2,13.6c0.1,2.2,0.5,4.2,1.2,6s1.6,3.6,2.7,5.1
		c1.2,1.5,2.6,2.7,4.1,3.6c-4.7,1.5-8.6,1.8-12,0.8c-3.3-1-5.9-2.8-7.7-5.5c-1.8-2.7-2.8-5.8-2.9-9.5c-0.1-3.6,0.4-6.8,1.5-9.8
		c1.1-3,2.6-5.6,4.6-7.7c2-2.1,4.3-4,6.9-5.5c2.7-1.5,5.5-2.6,8.6-3.3c3-0.7,6.2-1.1,9.4-1.1c3.4,0,6.8,0.3,10.3,0.8
		c3.4,0.6,6.2,1.1,8.4,1.8c2.2,0.6,4.4,1.1,6.7,1.5c2.3,0.4,4.3,0.4,6,0.1c1.9-0.3,3.5-1,4.8-2c1.3-1,1.9-2.1,1.7-3.5
		c-0.2-1.2-0.9-2.2-2.1-2.9c-1.2-0.7-2.5-1.1-4-1.2c-1.5,0-3,0.1-4.4,0.5c-1.4,0.4-2.6,1.2-3.5,2.3c-0.9,1.2-1.2,2.6-0.9,4.3
		c-2.4-0.1-4.1-1.3-5-3.5c-1-2.3-0.7-4.4,0.9-6.4c1.7-2.3,4.7-3.5,8.8-3.6c3.3,0,6.3,1,9,3.1c2.7,2.1,4.6,4.6,5.6,7.4
		c0.4,1.4,0.6,2.9,0.6,4.5c0,1.5-0.3,3-0.9,4.5c-0.6,1.5-1.5,2.8-2.5,4c-1,1.2-2.4,2.1-4.1,2.8C233,27,231.1,27.4,229.1,27.4z
		 M204.7,34.7L204.7,34.7c-0.3,18.3,0.3,29.2,1.7,33h-16.1c1.7-4.2,2.4-15.1,1.9-32.7c-0.2-6.6-0.9-11-2-13c2.5-0.2,5.4-0.8,8.7-1.6
		c3.2-0.8,5.7-1.6,7.5-2.4c-0.9,2.3-1.4,7-1.6,14.3h9.9v2.4H204.7z"/>
	<path class="st1" d="M229.9,42c-0.2,1.2-0.3,2.9-0.4,5.2c-0.1,2.3-0.1,4.7-0.1,7.2c0,2.5,0.2,5,0.6,7.5c0.3,2.5,0.8,4.4,1.3,5.7
		h-16.3c1.1-2.4,1.8-6,2.1-10.7c0.3-4.8,0.2-9.2-0.3-13.3c-0.4-4.1-1-6.9-1.8-8.2c5-0.5,9.9-1.5,14.5-3.2V36c0.3-0.5,0.7-1,1.1-1.4
		c2-1.9,4.3-2.9,7.1-2.8c2.7,0.1,4.9,1.3,6.7,3.5c1.8,2.3,2.7,4.8,2.8,7.7c0,2.1-0.5,3.9-1.4,5.4c-0.9,1.5-2.1,2.6-3.5,3.2
		s-3,0.9-4.6,0.9c-1.7-0.1-3.2-0.5-4.6-1.3c1.2-0.9,2.1-2.4,2.6-4.6c0.5-2.1,0.5-4.1,0-6c-0.5-1.9-1.2-2.9-2.3-3.1
		C231.6,37.3,230.5,38.7,229.9,42z"/>
	<path class="st1" d="M275.2,61.7c0.1-3.2-1.4-7.8-4.5-13.8c-2.2-4.2-4.4-7.4-6.6-9.7c-2.2-2.3-4-2.9-5.3-1.7
		c-1.1,1-1.4,2.5-0.9,4.6c0.6,2.1,1.9,3.7,3.9,4.9c-0.2,1.3-0.7,2.4-1.5,3.2c-0.8,0.9-1.8,1.4-3,1.7c-2.3,0.5-4.2,0-5.8-1.6
		c-1.5-1.6-2.2-3.6-1.9-6.1c0.2-1.8,0.9-3.4,2.2-5c1.3-1.5,2.9-2.9,4.9-4c3.2-1.8,6.4-2.6,9.4-2.5c3.1,0.1,6.1,1,8.9,2.8
		c2.8,1.8,5,4.3,6.7,7.4c0.7,1.4,1.3,2.9,1.6,4.5c0.4,1.6,0.5,3.3,0.4,4.9c-0.1,1.6-0.5,3.2-1.1,4.6c-0.6,1.4-1.5,2.6-2.8,3.7
		C278.6,60.7,277,61.4,275.2,61.7z M252.4,57.6c-1.2-2.4-2-5-2.2-7.7c2.1,2.6,4.5,3.6,7.3,3c2-0.5,3.6-1.7,4.8-3.6
		c0.4,0.8,0.8,1.5,1.2,2.3c1.6,3,3.2,5.4,5,7.3c1.7,1.8,3.6,3.1,5.7,3.8c2.1,0.7,4.4,0.6,6.9-0.5c2.5-1,5.1-2.9,7.8-5.7
		c4.6-4.6,8.4-9.8,11.4-15.6c0.2-0.3,0.5-0.9,0.9-1.7c0.4-0.9,0.8-1.5,1-1.9c0.2-0.4,0.5-0.9,1-1.6s0.9-1.2,1.4-1.6
		c0.5-0.4,1-0.8,1.7-1.2c0.9-0.5,1.8-0.9,3-1c1.1-0.2,2.2-0.1,3.4,0.2c1.2,0.3,2.2,0.9,3.2,1.7s1.8,2,2.4,3.6
		c0.6,1.6,0.9,3.5,0.9,5.7c0,0.3,0,1.3,0,3c0,1.7,0,3,0,3.9s0,2.3,0,4c0,1.7,0.1,3.1,0.2,4.3c0.1,1.2,0.2,2.4,0.3,3.7
		c0.1,1.3,0.3,2.5,0.5,3.5c0.2,1,0.5,1.8,0.8,2.3h-15.7c0.6-0.9,1.1-3.5,1.5-8c0.4-4.5,0.5-8.9,0.1-13.2c-0.3-4.3-1.1-6.5-2.4-6.6
		c-0.8,0-1.6,0.6-2.4,1.9c-0.2,0.5-0.5,0.9-0.7,1.4c-0.7,1.6-1.3,3.8-2,6.8c-0.1,0.4-0.2,0.8-0.3,1.2c0,8,0.6,13.5,1.9,16.6h-16.3
		c0.6-1.4,1.1-3.3,1.4-5.7c-2.8,1.9-5.7,3.4-8.9,4.4c-3.1,1-6.2,1.5-9.3,1.4c-3.1,0-6-0.9-8.8-2.7C256.4,63.4,254.2,60.9,252.4,57.6
		z M286.8,55.6c0.1-4.1,0-8.2-0.4-12.2c-0.4-4-1-6.6-1.7-8c5-0.5,9.8-1.5,14.4-3.2v6.4C295,46.5,290.9,52.1,286.8,55.6z"/>
	<path class="st1" d="M321.9,32.3c2.6-0.5,5.3-1.3,8.2-2.4c2.9-1.1,5.1-2.3,6.5-3.4v5.8h6.3v2.4c-0.7,0-1.8,0-3.2,0
		c-1.4,0-2.5,0-3.2,0c0,13.1,0.1,20.9,0.1,23.5c0,2.5,0.2,4.5,0.7,5.8c0.5,1.3,1.2,1.8,2.3,1.7c1.4-0.5,2-2.1,1.7-4.9
		c-0.3-2.8-1.3-5.1-2.9-6.9c2.8-1.4,4.9-1.1,6.3,1c1.3,1.9,1.6,4.2,0.6,6.9c-1.1,3.2-3.3,5.3-6.8,6.2c-1.1,0.3-2.3,0.5-3.5,0.5
		c-7.4,0-11.2-4.1-11.2-12.4c0-1.3,0-3,0-5.2c0-2.2,0-3.7,0-4.6c0-0.9,0-2.1-0.1-3.7c0-1.5-0.1-2.7-0.1-3.4
		c-0.1-0.7-0.2-1.6-0.3-2.5c-0.1-1-0.3-1.8-0.6-2.4C322.6,33.5,322.3,32.9,321.9,32.3z"/>
	<path class="st1" d="M380.1,55.6c-0.1,1.2-0.4,2.3-0.9,3.4c-0.5,1.1-1,2.1-1.7,3c-0.7,0.9-1.5,1.8-2.3,2.5c-0.9,0.8-1.9,1.4-3,2
		c-1.1,0.6-2.2,1-3.4,1.4c-4.8,1.3-9.3,0.7-13.5-1.9c-2.4-1.4-4.3-3.3-5.7-5.7c-1.4-2.3-2.3-4.7-2.6-7.2c-0.3-2.5-0.2-5,0.5-7.6
		c0.6-2.6,1.6-4.9,3.1-6.9c1.4-2,3.3-3.7,5.7-5c2.4-1.3,4.9-1.9,7.7-1.9c4.3,0,8,1.5,11.2,4.6c3.1,3.1,4.9,6.9,5.3,11.4h-23.8
		c1.2,2.4,2.9,4.3,5.1,5.9c2.2,1.6,4.9,2.7,8,3.2C372.8,57.5,376.3,57,380.1,55.6z M355.7,36.4c-0.9,0.2-1.4,1.1-1.5,2.8
		c-0.1,1.7,0.3,3.7,1.3,6.2h9.7c-0.9-2.6-2.4-4.9-4.4-6.7C358.8,36.8,357.1,36.1,355.7,36.4z"/>
	<path class="st1" d="M396.5,42c-0.2,1.2-0.3,2.9-0.4,5.2c-0.1,2.3-0.1,4.7-0.1,7.2c0,2.5,0.2,5,0.6,7.5c0.3,2.5,0.8,4.4,1.3,5.7
		h-16.3c1.1-2.4,1.8-6,2.1-10.7c0.3-4.8,0.2-9.2-0.3-13.3c-0.4-4.1-1-6.9-1.8-8.2c5-0.5,9.9-1.5,14.5-3.2V36c0.3-0.5,0.7-1,1.1-1.4
		c2-1.9,4.3-2.9,7.1-2.8c2.7,0.1,4.9,1.3,6.7,3.5c1.8,2.3,2.7,4.8,2.8,7.7c0,2.1-0.5,3.9-1.4,5.4c-0.9,1.5-2.1,2.6-3.5,3.2
		c-1.4,0.6-3,0.9-4.6,0.9c-1.7-0.1-3.2-0.5-4.6-1.3c1.2-0.9,2.1-2.4,2.6-4.6c0.5-2.1,0.5-4.1,0-6c-0.5-1.9-1.2-2.9-2.3-3.1
		C398.2,37.3,397.1,38.7,396.5,42z"/>
	<path class="st1" d="M434,56.4c-0.5,1.7-1,3.1-1.5,4.4s-1.2,2.5-2,3.8c-0.8,1.3-1.9,2.3-3.2,3c-1.3,0.7-2.7,1-4.4,1
		c-2.7,0-4.8-0.9-6.4-2.8c-1.6-1.9-2.3-4.2-2.1-6.8c0.2-2.6,1.2-4.9,3.1-6.8c1.3-1.4,3-2.6,5-3.6c2-1,3.8-1.8,5.4-2.3
		c1.6-0.5,3-1.2,4.4-2.2c1.4-1,2.2-2.2,2.6-3.8c0.4-1.6,0.3-3.1-0.2-4.4c-0.5-1.4-1.6-2.1-3.2-2.3c-0.8,0-1.6,0.2-2.4,0.6
		c-0.8,0.5-1.4,1.1-1.8,1.8c-0.4,0.7-0.5,1.7-0.3,2.7s0.9,2.1,1.9,3.2c-1,1.2-2.4,2.1-4.1,2.5c-1.7,0.4-3.4,0.2-4.9-0.5
		c-1.6-0.8-2.6-2.1-3-3.9c-0.3-2.6,1.2-4.8,4.7-6.7c3.8-2,8-2.7,12.6-2.1c5.5,0.7,9.2,3.1,11.2,7.4c0.8,1.8,1.2,3.9,1.2,6.3
		l0.1,13.2c0,2.5,0.2,4.5,0.7,5.8c0.5,1.3,1.2,1.8,2.3,1.7c1.4-0.5,1.9-2.1,1.6-4.9c-0.3-2.8-1.3-5.1-2.8-6.9c2.7-1.4,4.8-1.1,6.3,1
		c1.3,1.9,1.5,4.2,0.6,6.9c-1.1,3.2-3.3,5.3-6.8,6.2c-1.1,0.3-2.3,0.5-3.6,0.5C437.8,68.4,434.1,64.4,434,56.4z M434,50.4
		c0-2,0.1-3.5,0.1-4.3c-0.1,0-0.3,0.3-0.8,0.7c-0.4,0.4-0.7,0.7-0.8,0.8c-0.1,0.1-0.4,0.4-0.7,0.8c-0.4,0.4-0.6,0.7-0.8,0.9
		c-0.1,0.2-0.4,0.5-0.7,0.9c-0.3,0.4-0.6,0.8-0.7,1c-0.1,0.3-0.3,0.7-0.6,1.1c-0.2,0.5-0.4,0.9-0.6,1.3c-0.1,0.4-0.3,0.8-0.4,1.3
		c-0.1,0.5-0.2,1-0.3,1.4c-0.2,1.2-0.2,2.1,0.1,2.7c0.2,0.7,0.6,1,1.2,1c1.1-0.1,2-1,2.8-2.7C432.5,55.8,433.2,53.4,434,50.4z"/>
</g>
</svg>
